<svg width="42" height="375" viewBox="0 0 42 375" xmlns="http://www.w3.org/2000/svg">
    <title>
        visual-key
    </title>
    <path d="M0 0v5.467h35.832V8.8H0v5.464h41.296V0H0zm0 17.604v5.464h35.832v3.337H0v5.47h41.296V17.605H0zM0 35.21v5.467h35.832v3.335H0v5.464h41.296V35.21H0zm0 17.61v5.461h35.832v3.338H0v5.47h41.296v-14.27H0zm0 17.607v5.467h35.832v3.334H0v5.461h41.296V70.427H0zM0 88.03v5.467h35.832v3.341H0v5.464h41.296V88.03H0zm0 17.607v5.467h35.832v3.34H0v5.465h41.296v-14.272H0zm0 17.61v5.467h35.832v3.337H0v5.464h41.296v-14.269H0zm0 17.606v5.467h35.832v3.338H0v5.467h41.296v-14.272H0zm0 17.613v5.464h35.832v3.34H0v5.462h41.296v-14.266H0zm0 17.603v5.467h35.832v3.335H0v5.47h41.296V176.07H0zm0 17.607v5.464h35.832v3.34H0v5.465h41.296v-14.27H0zm0 17.61v5.464h35.832v3.334H0v5.467h41.296v-14.265H0zm0 17.606v5.464h35.832v3.335H0v5.464h41.296v-14.263H0zM0 246.5v5.467h35.832v3.338H0v5.467h41.296v-14.272H0zm0 17.603v5.468h35.832v3.337H0v5.467h41.296v-14.272H0zm0 17.607v5.467h35.832v3.34H0v5.465h41.296v-14.272H0zm0 17.61v5.47h35.832v3.335H0v5.464h41.296v-14.27H0zm0 17.615v5.461h35.832v3.338H0v5.464h41.296v-14.263H0zm0 17.604v5.464h35.832v3.335H0v5.467h41.296v-14.266H0zm0 17.604v5.464h35.832v3.337H0v5.468h41.296v-14.27H0zM0 375h41.296v-5.252H0V375z" fill="#201300" fill-rule="evenodd"/>
</svg>
